<?xml version="1.0" standalone="no"?>
<!DOCTYPE svg PUBLIC "-//W3C//DTD SVG 20010904//EN"
 "http://www.w3.org/TR/2001/REC-SVG-20010904/DTD/svg10.dtd">
<svg version="1.0" xmlns="http://www.w3.org/2000/svg"
 width="1024.000000pt" height="1024.000000pt" viewBox="0 0 1024.000000 1024.000000"
 preserveAspectRatio="xMidYMid meet">
<metadata>
Created by potrace 1.14, written by Peter Selinger 2001-2017
</metadata>
<g transform="translate(0.000000,1024.000000) scale(0.100000,-0.100000)"
fill="#000000" stroke="none">
<path d="M0 5120 l0 -5120 5120 0 5120 0 0 5120 0 5120 -5120 0 -5120 0 0
-5120z m6400 4160 l0 -320 320 0 320 0 0 -1920 0 -1920 -320 0 -320 0 0 -320
0 -320 -2240 0 -2240 0 0 -1920 0 -1920 -640 0 -640 0 0 4480 0 4480 2880 0
2880 0 0 -320z"/>
<path d="M1920 7040 l0 -1280 1920 0 1920 0 0 1280 0 1280 -1920 0 -1920 0 0
-1280z"/>
</g>
</svg>
